<svg class="mon-svg" width="53" height="53" viewBox="0 0 53 53" fill="none" xmlns="http://www.w3.org/2000/svg">
<path d="M35.3337 48.5831V40.0368C35.4165 38.9838 35.2742 37.9252 34.9163 36.9315C34.5584 35.9377 33.993 35.0315 33.2578 34.2731C40.192 33.5002 47.4795 30.8723 47.4795 18.8148C47.4789 15.7315 46.2929 12.7666 44.167 10.5335C45.1737 7.83604 45.1025 4.85445 43.9682 2.20809C43.9682 2.20809 41.3624 1.43518 35.3337 5.47643C30.2722 4.10466 24.9368 4.10466 19.8753 5.47643C13.8466 1.43518 11.2407 2.20809 11.2407 2.20809C10.1065 4.85445 10.0353 7.83604 11.042 10.5335C8.90019 12.7831 7.71298 15.7749 7.72949 18.881C7.72949 30.8502 15.017 33.4781 21.9512 34.3393C21.2246 35.0901 20.6643 35.9854 20.3066 36.9671C19.949 37.9487 19.802 38.9947 19.8753 40.0368V48.5831M19.8753 41.9581C8.83366 45.2706 8.83366 36.4373 4.41699 35.3331L19.8753 41.9581Z" stroke="#C9C9C9" stroke-width="1.33333" stroke-linecap="round" stroke-linejoin="round"/>
</svg>
