<svg width="233" height="270" viewBox="0 0 433 654" fill="none" xmlns="http://www.w3.org/2000/svg">
<path d="M219 0C243.426 0 267.613 4.81104 290.179 14.1584C312.746 23.5058 333.25 37.2065 350.522 54.4781C367.794 71.7498 381.494 92.2543 390.842 114.821C400.189 137.387 405 161.574 405 186C405 210.426 400.189 234.613 390.842 257.179C381.494 279.746 367.794 300.25 350.522 317.522C333.25 334.794 312.746 348.494 290.179 357.842C267.613 367.189 243.426 372 219 372L219 186L219 0Z" fill="url(#paint0_linear_256_38)"/>
<path d="M219 597C194.574 597 170.387 592.189 147.821 582.842C125.254 573.494 104.75 559.794 87.4781 542.522C70.2065 525.25 56.5058 504.746 47.1584 482.179C37.811 459.613 33 435.426 33 411C33 386.574 37.811 362.387 47.1584 339.821C56.5058 317.254 70.2065 296.75 87.4781 279.478C104.75 262.206 125.254 248.506 147.821 239.158C170.387 229.811 194.574 225 219 225L219 411V597Z" fill="url(#paint1_linear_256_38)"/>
<mask id="path-3-inside-1_256_38" fill="white">
<path d="M247 49C296.33 49 343.64 68.5964 378.522 103.478C413.404 138.36 433 185.67 433 235C433 284.33 413.404 331.64 378.522 366.522C343.64 401.404 296.33 421 247 421L247 235L247 49Z"/>
</mask>
<path d="M247 49C296.33 49 343.64 68.5964 378.522 103.478C413.404 138.36 433 185.67 433 235C433 284.33 413.404 331.64 378.522 366.522C343.64 401.404 296.33 421 247 421L247 235L247 49Z" stroke="white" stroke-width="2" mask="url(#path-3-inside-1_256_38)"/>
<mask id="path-4-inside-2_256_38" fill="white">
<path d="M186 654C136.67 654 89.3599 634.404 54.4781 599.522C19.5964 564.64 0 517.33 0 468C0 418.67 19.5964 371.36 54.4781 336.478C89.3599 301.596 136.67 282 186 282L186 468L186 654Z"/>
</mask>
<path d="M186 654C136.67 654 89.3599 634.404 54.4781 599.522C19.5964 564.64 0 517.33 0 468C0 418.67 19.5964 371.36 54.4781 336.478C89.3599 301.596 136.67 282 186 282L186 468L186 654Z" stroke="white" stroke-width="2" mask="url(#path-4-inside-2_256_38)"/>
<defs>
<linearGradient id="paint0_linear_256_38" x1="33" y1="186" x2="405" y2="186" gradientUnits="userSpaceOnUse">
<stop stop-color="#98E959"/>
<stop offset="1" stop-color="#2330A3"/>
</linearGradient>
<linearGradient id="paint1_linear_256_38" x1="405" y1="411" x2="33" y2="411" gradientUnits="userSpaceOnUse">
<stop stop-color="#98E959"/>
<stop offset="1" stop-color="#2330A3"/>
</linearGradient>
</defs>
</svg>
