<svg width="53" height="53" viewBox="0 0 53 53" fill="none" xmlns="http://www.w3.org/2000/svg">
<path d="M50.7913 6.62523C48.6766 8.11691 46.3352 9.25781 43.8572 10.004C42.5272 8.47474 40.7596 7.39085 38.7935 6.8989C36.8275 6.40696 34.7577 6.53071 32.8643 7.2534C30.9708 7.9761 29.345 9.26287 28.2067 10.9397C27.0684 12.6165 26.4725 14.6025 26.4997 16.629V18.8373C22.6188 18.9379 18.7733 18.0772 15.3057 16.3318C11.838 14.5865 8.85579 12.0106 6.62467 8.83357C6.62467 8.83357 -2.20866 28.7086 17.6663 37.5419C13.1183 40.6291 7.70048 42.177 2.20801 41.9586C22.083 53.0002 46.3747 41.9586 46.3747 16.5627C46.3726 15.9476 46.3135 15.334 46.198 14.7298C48.4518 12.5071 50.0423 9.70081 50.7913 6.62523V6.62523Z" stroke="#C9C9C9" stroke-width="1.33333" stroke-linecap="round" stroke-linejoin="round"/>
</svg>
